<?xml version="1.0" encoding="utf-8"?>
<!-- Generator: Adobe Illustrator 16.0.0, SVG Export Plug-In . SVG Version: 6.00 Build 0)  -->
<!DOCTYPE svg PUBLIC "-//W3C//DTD SVG 1.1//EN" "http://www.w3.org/Graphics/SVG/1.1/DTD/svg11.dtd">
<svg version="1.1" id="Layer_1" xmlns="http://www.w3.org/2000/svg" xmlns:xlink="http://www.w3.org/1999/xlink" x="0px" y="0px"
	 width="1958.74px" height="266.759px" viewBox="0 0 1958.74 266.759" enable-background="new 0 0 1958.74 266.759"
	 xml:space="preserve">
<g>
	<defs>
		<rect id="SVGID_1_" y="0.001" width="1958.74" height="266.758"/>
	</defs>
	<clipPath id="SVGID_2_">
		<use xlink:href="#SVGID_1_"  overflow="visible"/>
	</clipPath>
	<path clip-path="url(#SVGID_2_)" d="M63.613,161.309l-2.096,5.382c-6.77,17.81,7.029,35.541,25.302,32.562
		c6.508-1.042,6.863-0.846,6.785,5.306c-0.277,20.074-13.88,34.415-29.021,30.621c-7.104-1.789-15.88-15.401-14.754-23.112
		c0.847-5.782,0.588-6.153-6.26-6.153c-9.468-0.015-18.873-6.029-22.237-14.138c-0.891-2.19-1.464-3.715-1.602-5.166
		c-0.262-2.42,0.681-4.517,2.84-8.495c5.086-9.39,13.121-13.738,28.494-15.448L63.613,161.309z M83.534,119.648
		c7.817,0,11.317,2.235,34.878,22.11c7.198,6.06,13.103,11.423,13.167,12.028c0.186,1.635-26.149,24.898-34.924,30.852
		c-14.229,9.667-27.14,5.243-27.14-9.329c0-5.52,1.377-8.264,6.002-12.166c7.616-6.399,7.586-10.086-0.123-16.976
		c-4.397-3.915-6.445-8.634-6.526-12.997C68.763,125.891,74.222,119.648,83.534,119.648 M69.425,73.5
		c9.685-0.093,19.568,7.692,22.204,19.102c1.017,4.409,1.942,10.206,1.975,12.998c0.03,4.689-0.572,5.011-7.758,4.333
		c-19.333-1.852-31.361,15.928-23.359,34.523c1.526,3.548,0.912,3.795-10.206,2.449c-16.47-1.974-25.134-6.658-29.624-15.832
		c-1.599-3.285-2.388-5.429-2.542-7.402c-0.168-1.957,0.341-3.731,1.452-6.378c3.219-7.775,12.69-13.621,22.002-13.621
		c6.815-0.015,7.212-0.4,6.396-6.044c-0.97-6.598,5.384-18.821,11.552-22.14C64.028,74.145,66.709,73.513,69.425,73.5
		 M77.044,42.383c-5.863-0.015-11.657,1.202-17.009,3.746c-8.727,4.132-22.574,19.397-24.468,26.908
		c-0.695,2.788-2.514,5.041-4.026,5.041c-4.749,0-21.062,13.105-25.564,20.522c-4.397,7.215-6.397,14.816-5.903,22.496
		c0.292,4.607,1.352,9.267,3.421,13.907c2.605,5.905,6.384,12.443,8.357,14.617c3.301,3.655,3.177,4.659-2.451,12.784
		C-6.927,185.963,0.258,216,25.238,228.147c5.963,2.9,10.588,7.602,14.663,14.881c14.382,25.766,45.668,31.548,67.438,12.416
		c9.209-8.084,13.263-15.452,16.5-29.883c1.819-8.099,4.394-12.369,10.546-17.425c4.505-3.686,14.064-11.901,21.279-18.334
		c14.615-13.015,21.803-14.618,35.755-7.971c6.77,3.237,8.977,3.391,16.717,0.846c7.197-2.391,30.717-1.578,33.671-2.11
		c2.406-0.432-2.433-53.273-2.433-53.442c0-2.451-16.964-1.743-23.113,0.97c-2.527,1.126-5.722,0.85-8.219-0.708
		c-5.553-3.469-11.302-3.27-18.951,0.708c-11.886,6.201-19.134,4.367-33.427-8.356c-7.215-6.411-16.774-14.617-21.279-18.3
		c-6.152-5.041-8.727-9.36-10.546-17.455c-3.051-13.63-6.923-21.017-14.877-28.401C99.693,46.978,88.238,42.413,77.044,42.383"/>
	<path clip-path="url(#SVGID_2_)" d="M361.355,0c-3.686,0.355-4.963,6.336-5.412,24.468c-0.34,13.461-2.159,36.327-4.071,50.822
		c-1.896,14.494-4.626,39.133-6.059,54.77l-2.605,28.431l-10.055-1.649c-11.811-1.94-14.386-4.147-20.367-17.561
		c-9.591-21.451-18.102-21.526-33.565-0.28c-2.855,3.925-28.962-13.88-48.081-13.386c-0.262,0.009,8.016,18.873,8.067,18.889
		c6.171,1.894,15.777,2.107,15.868,7.312c0.093,5.556-9.053,12.642-15,14.129c-3.253,0.817-0.521,9.453-0.488,14.871
		c0.003,0.237-0.431,0.247,3.147-0.435c10.94-2.071,37.077-24.916,41.621-31.203c10.591-14.663,15.187-15.682,19.255-4.286
		c5.322,14.939,10.441,20.183,21.017,21.571c7.725,1.018,11.504,3.5,14.046,9.254c5.152,11.576,11.025,10.345,12.027-2.545
		c0.479-6.216,3.054-31.057,5.737-55.218l4.87-43.925l2.346,30.111c1.295,16.56,2.59,43.206,2.867,59.189
		c0.292,15.991,1.713,29.842,3.162,30.796c5.441,3.562,10.531-0.341,14.846-11.426c5.984-15.373,8.005-17.087,20.37-17.087
		c11.657,0,16.096-4.068,23.805-21.923c2.545-5.876,5.213-11.998,7.234-13.907c1.156-2.193,5.505-5.629,9.266-8.529
		c10.516-7.941,18.472-4.809,23.562,9.252c9.341,25.751,13.843,32.921,21.845,34.815c0.632,0.154,1.481,0.277,2.484,0.416
		c0.015-0.305,3.177-0.016,3.223-0.416c6.291-0.415,9.465-4.225,3.424-5.409c-1.557-1.545-2.054-1.559-3.364-3.056
		c-1.139-1.295-5.087-3.424-4.855-4.009c-6.863-5.074-9.254-13.6-15.265-27.935c-12.768-30.439-47.861-17.195-61.367,23.155
		c-1.867,5.536-5.535,7.972-14.633,9.682c-6.691,1.283-14.88,3.055-18.195,3.948c-5.011,1.358-6.138-0.617-6.613-11.642
		c-0.311-7.31-1.867-33.039-3.424-57.203c-1.572-24.146-2.467-52.393-1.973-62.737C371.085,8.05,368.866,0,361.71,0H361.355z"/>
	<path clip-path="url(#SVGID_2_)" d="M826.865,0c-3.686,0.355-4.963,6.336-5.412,24.468c-0.34,13.461-2.159,36.327-4.068,50.822
		c-1.897,14.494-4.629,39.133-6.062,54.77l-2.605,28.431l-10.052-1.649c-11.814-1.94-14.389-4.147-20.37-17.561
		c-9.588-21.451-18.102-21.526-33.565-0.28c-2.855,3.925-10.953,17.081-16.503,17.204c-3.355,0.076,5.33,2.542,5.366,7.957
		c0,0.241,11.73-8.697,16.271-14.984c10.591-14.663,15.187-15.682,19.258-4.286c5.319,14.939,10.438,20.183,21.014,21.571
		c7.728,1.018,11.504,3.5,14.049,9.254c5.149,11.576,11.022,10.345,12.024-2.545c0.479-6.216,3.054-31.057,5.737-55.218
		l4.873-43.925l2.343,30.111c1.295,16.56,2.593,43.206,2.867,59.189c0.292,15.991,1.713,29.842,3.162,30.796
		c5.441,3.562,10.531-0.341,14.849-11.426c5.981-15.373,8.002-17.087,20.367-17.087c11.657,0,16.099-4.068,23.808-21.923
		c2.542-5.876,5.21-11.998,7.231-13.907c1.156-2.193,5.505-5.629,9.266-8.529c10.516-7.941,18.472-4.809,23.562,9.252
		c9.341,25.751,13.843,32.921,21.848,34.815c0.629,0.154,1.479,0.277,2.481,0.416c0.015-0.305,3.177-0.016,3.223-0.416
		c6.29-0.415,9.468-4.225,3.423-5.409c-1.556-1.545-2.05-1.559-3.363-3.056c-1.139-1.295-5.087-3.424-4.855-4.009
		c-6.863-5.074-9.251-13.6-15.265-27.935c-12.765-30.439-47.861-17.195-61.367,23.155c-1.864,5.536-5.535,7.972-14.633,9.682
		c-6.691,1.283-14.88,3.055-18.195,3.948c-5.011,1.358-6.134-0.617-6.613-11.642c-0.308-7.31-1.865-33.039-3.424-57.203
		c-1.572-24.146-2.467-52.393-1.973-62.737C836.595,8.05,834.376,0,827.22,0H826.865z"/>
	<path clip-path="url(#SVGID_2_)" d="M594.972,0c-3.686,0.355-4.966,6.336-5.412,24.468c-0.34,13.461-2.159,36.327-4.071,50.822
		c-1.897,14.494-4.626,39.133-6.059,54.77l-2.605,28.431l-10.055-1.649c-11.811-1.94-14.386-4.147-20.367-17.561
		c-9.591-21.451-18.102-21.526-33.569-0.28c-2.851,3.925-10.949,17.081-16.499,17.204c-3.355,0.076,5.33,2.542,5.363,7.957
		c0,0.241,11.73-8.697,16.271-14.984c10.594-14.663,15.19-15.682,19.258-4.286c5.321,14.939,10.441,20.183,21.017,21.571
		c7.725,1.018,11.504,3.5,14.046,9.254c5.149,11.576,11.025,10.345,12.027-2.545c0.479-6.216,3.054-31.057,5.737-55.218l4.87-43.925
		l2.346,30.111c1.295,16.56,2.59,43.206,2.867,59.189c0.292,15.991,1.71,29.842,3.162,30.796
		c5.441,3.562,10.531-0.341,14.846-11.426c5.984-15.373,8.005-17.087,20.37-17.087c11.657,0,16.096-4.068,23.805-21.923
		c2.545-5.876,5.213-11.998,7.234-13.907c1.153-2.193,5.502-5.629,9.266-8.529c10.513-7.941,18.472-4.809,23.559,9.252
		c9.344,25.751,13.846,32.921,21.848,34.815c0.632,0.154,1.481,0.277,2.484,0.416c0.015-0.305,3.174-0.016,3.222-0.416
		c6.291-0.415,9.466-4.225,3.422-5.409c-1.557-1.545-2.051-1.559-3.361-3.056c-1.139-1.295-5.09-3.424-4.855-4.009
		c-6.863-5.074-9.254-13.6-15.268-27.935c-12.765-30.439-47.858-17.195-61.364,23.155c-1.867,5.536-5.538,7.972-14.633,9.682
		c-6.691,1.283-14.88,3.055-18.195,3.948c-5.011,1.358-6.138-0.617-6.613-11.642c-0.311-7.31-1.867-33.039-3.424-57.203
		c-1.572-24.146-2.467-52.393-1.973-62.737C604.699,8.05,602.48,0,595.327,0H594.972z"/>
	<path clip-path="url(#SVGID_2_)" d="M818.125,115.298c4.043-2.209,18.054-9.866,33.094,8.047"/>
	<path clip-path="url(#SVGID_2_)" d="M890.848,19.76c1.557,24.041,4.46,48.605,4.029,72.73c-0.222,12.419-2.162,25.046-4.902,37.137
		c-2.355,10.402-10.218,15.554-12.615,25.661c-0.931,3.915,6.441,8.303,7.616,3.352c1.662-6.995,2.978-5.521,6.143-10.106
		c3.313-4.797,4.999-9.985,6.475-15.551c3.382-12.754,4.713-26.576,4.948-39.743c0.424-23.868-2.548-48.243-4.09-72.028
		C898.187,17.083,890.493,14.249,890.848,19.76"/>
	<path clip-path="url(#SVGID_2_)" d="M980.28,144.212c13.393,2.311,27.239-2.262,19.321-17.818
		c-5.878-11.546-21.296-17.85-32.099-9.52c-15.12,11.657-9.874,28.271,3.34,38.683c13.326,10.504,35.857,15.575,50.879,6.025
		c3.942-2.509-1.256-9.552-4.647-7.393c-10.459,6.649-23.238,5.101-34.249,0.623c-9.806-3.99-21.385-13.14-15.47-24.706
		c5.092-9.953,16.195-12.301,23.881-4.36c9.706,10.02-4.096,12.148-11.979,10.79C973.827,135.603,976.227,143.513,980.28,144.212"/>
	<path clip-path="url(#SVGID_2_)" d="M1060.085,138.11c19.854-15.349,39.872-27.973,42.838-54.812
		c1.298-11.735-2.319-48.442-23.307-38.257c-15.58,7.562-13.422,42.742-13.695,56.23c-0.458,22.489,1.843,44.847,2.078,67.3
		c0.045,4.156,7.664,6.972,7.606,1.455c-0.187-17.801-3.349-39.131,8.658-54.047c5.851-7.27,16.566-2.879,17.84,5.562
		c0.765,5.05-1.093,10.326-2.924,14.916c-4.06,10.178-13.856,18.162-25.125,15.177c-4.662-1.234-3.297,5.168-0.921,6.819
		c15.5,10.756,32.48,14.912,51.176,12.081c20.834-3.159,32.283-15.717,39.249-34.761c5.152-14.09,2.129-21.58-11.022-27.335
		c-10.916-4.776-18.914,11.227-22.438,18.701c-10.913,23.146,4.688,57.228,33.003,53.746c13.422-1.649,23.387-16.473,29.271-27.185
		c7.559-13.756,9.839-30.353,4.304-45.126c-0.974-2.59-6.646-5.951-7.357-1.407c-2.36,15.067,2.15,40.128,17.279,47.569
		c20.072,9.868,24.984-35.884,25.152-45.656c-2.535-1.118-5.077-2.235-7.616-3.352c0.006,24.977-1.9,153.71-51.204,118.013
		c-21.851-15.822,39.833-49.457,48.918-55.077c11.739-7.263,49.269-23.863,45.916-42.043c-0.734-3.996-8.595-6.839-7.604-1.454
		c1.822,9.904-19.101,20.934-25.536,25.167c-15.163,9.962-30.955,18.918-45.867,29.265c-19.966,13.851-42.462,36.795-12.736,53.933
		c55.004,31.711,55.739-97.43,55.73-124.451c0-3.873-7.528-8.327-7.616-3.352c-0.227,12.859-1.671,28.009-9.932,38.402
		c-11.744,14.768-18.336-26.778-17.268-33.611c-2.454-0.467-4.906-0.937-7.357-1.403c7.028,18.761-1.599,39.274-14.052,53.634
		c-17.638,20.336-43.479,5.408-41.569-20.058c0.619-8.253,6.131-17.402,11.335-23.561c3.852-4.553,13.63-4.044,12.991,4.366
		c-0.506,6.632-4.2,13.618-7.188,19.438c-14.006,27.287-53.381,24.629-75.093,9.557c-0.309,2.272-0.615,4.544-0.922,6.818
		c26.142,6.926,48.026-35.533,26.712-52.74c-12.149-9.806-24.051,0.699-29.714,12.582c-7.038,14.768-4.243,33.619-4.078,49.418
		c2.535,0.484,5.07,0.97,7.606,1.455c-0.367-34.662-6.264-70.411,1.834-104.628c1.449-6.116,9.197-22.646,15.735-8.661
		c4.337,9.275,2.701,21.749,0.937,31.464c-3.652,20.072-25.362,32.039-40.125,43.455
		C1050.641,134.243,1056.658,140.76,1060.085,138.11"/>
	<path clip-path="url(#SVGID_2_)" d="M1300.954,171.236c12.735-44.007,31.494-86.55,35.022-132.703
		c-2.537-1.12-5.079-2.238-7.615-3.355c-0.114,47.018-2.653,93.985-2.765,141.002c-0.009,3.886,7.531,8.312,7.616,3.352
		c0.328-19.508,3.969-40.669-11.619-55.489c-1.379-1.312-3.654-2.508-5.378-1.026c-12.561,10.826-8.206,28.379,5.773,35.441
		c17.23,8.7,40.134-15.376,51.011-25.296c2.87-2.62-2.213-8.793-5.372-6.923c-9.947,5.872-23.767,18.689-22.595,31.652
		c1.236,13.685,16.241,19.945,28.575,17.569c26.305-5.067,29.368-45.316,2.286-51.213c-5.262-1.141-2.889,5.945,0.038,7.366
		c14.29,6.936,35.74,2.96,36.532-15.671c0.169-3.961-7.404-8.303-7.616-3.355c-0.62,14.587-16.98,17.311-27.973,11.97
		c0.015,2.455,0.027,4.912,0.042,7.366c20.514,4.466,7.83,29.317-4.695,35.159c-10.841,5.057-22.148-5.083-16.812-16.129
		c3.418-7.08,10.161-13.368,16.864-17.322c-1.791-2.31-3.583-4.617-5.375-6.927c-6.568,5.993-13.185,11.823-20.389,17.051
		c-4.14,3.007-8.443,5.097-13.139,6.966c-13.606,5.414-21.294-12.425-11.055-21.251c-1.792-0.34-3.586-0.684-5.375-1.027
		c12.973,12.338,8.926,31.617,8.654,47.737c2.535,1.117,5.077,2.234,7.616,3.352c0.111-47.015,2.653-93.984,2.764-140.999
		c0.01-3.731-7.224-8.514-7.615-3.355c-3.523,46.118-22.297,88.721-35.023,132.706
		C1292.22,171.742,1299.538,176.126,1300.954,171.236"/>
	<path clip-path="url(#SVGID_2_)" d="M1431.419,136.451c7.011-6.438,13.467-2.319,19.364,12.359
		c-0.384,2.686-0.929,5.339-1.636,7.956c-1.226,5.144-2.698,10.067-3.388,15.326c2.535,1.116,5.077,2.233,7.616,3.351
		c0.436-8.594,3.107-16.981,6.52-24.826c2.616-6.02,9.992-10.489,11.401-0.86c0.72,4.926,0.334,10.004,0.265,14.963
		c2.538,1.117,5.08,2.234,7.616,3.352c-0.03-8.721-0.172-17.388,2.62-25.775c1.888-5.664,6.839-8.729,12.438-9.742
		c5.107-0.927,5.314,11.23,5.495,13.953c0.605,9.082,1.162,22.736,10.809,27.482c21.339,10.498,37.098-26.115,36.833-41.883
		c-0.061-3.485-7.489-7.023-7.61-2.404c-0.373,14.275-2.806,34.846,16.193,37.174c17.071,2.088,21.517-27.007,21.833-38.432
		c0.102-3.713-6.857-8.568-7.619-3.352c-4.46,30.521-10.889,61.973-22.487,90.606c-2.739,6.766-6.044,13.669-11.108,19.011
		c-1.802,1.897-4.226,3.496-6.941,3.192c-11.344-1.266-6.083-16.677-3.469-22.092c12.295-25.486,44.467-31.536,61.924-52.637
		c2.762-3.334-3.418-9.694-6.098-6.455c-20.201,24.414-57.854,30.209-66.635,64.114c-3.756,14.5,12.831,31.718,26.176,21.375
		c15.223-11.796,20.109-39.727,24.673-57.133c4.872-18.593,8.802-37.601,11.585-56.63c-2.539-1.118-5.08-2.235-7.619-3.352
		c-0.256,9.29-2.222,18.391-6.429,26.711c-4.238,8.381-14.94,8.812-16.601-1.614c-0.888-5.58,0.091-11.509,0.238-17.135
		c-2.538-0.801-5.074-1.602-7.61-2.403c0.229,13.588-9.653,34.541-24.555,37.236c-7.387,1.341-9.095-31.382-11.865-36.767
		c-4.463-8.664-15.205-6.812-21.975-2.708c-11.13,6.746-9.854,25.378-9.812,36.307c0.016,3.869,7.551,8.317,7.616,3.352
		c0.147-11.049,2.147-32.876-13.537-34.08c-14.127-1.087-19.388,28.354-19.881,38.102c-0.196,3.8,6.938,8.494,7.616,3.351
		c1.587-12.066,11.293-30.78,0.548-41.482c-6.972-6.941-20.418-12.673-28.603-3.967
		C1422.355,133.145,1428.499,139.557,1431.419,136.451"/>
	<path clip-path="url(#SVGID_2_)" d="M1617.16,161.66c14.832-21.478,42.127-39.573,48.123-66.297
		c3.023-13.476,1.671-38.706-8.857-49.036c-13.464-13.208-20.646,21.288-21.806,28.242c-5.402,32.415,0.627,66.002-6.062,98.268
		c2.493,0.933,4.98,1.873,7.475,2.809c-1.156-9.835-0.464-19.878,0.97-29.645c2.385-16.252,11.003-21.93,27.088-23.32
		c17.187-1.488,2.909,29.958,0.677,38.232c-3.155,11.691,7.812,18.918,18.524,18.536c18.912-0.669,39.802-20.528,46.177-37.314
		c6.06-15.955-14.006-21.892-25.979-20.343c-23.014,2.982-15.196,33.04-5.945,45.028c10.868,14.081,25.067,15.548,37.661,3.268
		c6.976-6.801,12.413-15.271,18.4-22.911c6.911-8.821,24.067-26.423,37.098-18.105c4.442,2.837,5.379-4.035,2.25-6.393
		c-10.158-7.667-25.462,2.325-34.022,8.206c-10.36,7.122-21.955,19.242-16.059,32.526c5.864,13.221,27.296,15.533,37.451,7.23
		c12.085-9.877,12.422-30.263,15.087-44.253c-2.493-0.938-4.979-1.873-7.471-2.81c-0.271,13.503-3.403,28.898,3.909,41.128
		c5.686,9.5,19.859,10.963,28.889,5.965c19.686-10.901,25.38-45.689,0.671-53.284c-5.044-1.551-3.336,5.83-0.355,7.356
		c12.154,6.218,44.28,12.624,48.828-6.002c-2.491-0.937-4.978-1.873-7.472-2.81c-0.539,12.07-27.143,69.474,5.402,61.922
		c20.192-4.687,32.895-27.971,39.062-45.711c9.851-28.311,12.685-58.329,13.429-88.134c0.088-3.502-7.225-7.378-7.469-2.81
		c-2.424,45.626,10.155,90.048,8.7,135.44c-0.114,3.508,7.21,7.375,7.472,2.807c0.774-13.437,3.568-30.705-3.503-42.878
		c-4.424-7.621-25.977-12.627-31.882-5.023c-8.661,11.165,5.288,25.333,16.234,28.275c4.854,1.304,9.652,1.603,12.789-2.924
		c7.635-11.001,22.957-12.142,34.409-17.045c4.273-1.831-0.487-9.242-4.243-7.634c-8.407,3.599-17.349,5.562-25.66,9.447
		c-3.438,1.604-6.306,3.894-8.992,6.525c-6.742,6.625-11.77,4.038-17.885-2.455c1.852-8.031,5.441-10.982,10.769-8.85
		c1.804,0.497,3.581,1.062,5.34,1.688c4.905,1.653,4.884,5.376,5.427,10.028c1.039,8.932,0.282,18.141-0.229,27.085
		c2.491,0.937,4.978,1.874,7.469,2.81c1.433-44.756-11.182-88.566-8.791-133.54c-2.489-0.937-4.978-1.873-7.468-2.81
		c-0.979,39.21-3.596,93.991-36.324,121.27c-2.81,2.343-17.238,12.15-17.74,3.814c-0.361-6.017,1.942-12.615,3.518-18.328
		c2.806-10.202,7.206-20.441,7.688-31.111c0.15-3.46-6.345-7.417-7.472-2.809c-3.327,13.614-31.665,7.07-40.082,2.764
		c-0.124,2.451-0.241,4.903-0.358,7.357c19.054,5.857,2.964,34.945-9.339,39.732c-23.185,9.022-17.454-27.97-17.222-39.398
		c0.069-3.388-6.578-7.507-7.469-2.809c-3.563,18.683-6.526,55.742-35.023,41.973c-16.997-8.209,25.225-44.873,36.807-36.131
		c0.75-2.132,1.5-4.264,2.253-6.394c-12.962-8.278-30.022,2.816-39.142,12.414c-10.802,11.374-18.55,30.078-33.772,36.137
		c-13.958,5.554-23.884-18.062-23.414-27.752c0.867-17.864,30.857-16.503,26.013-3.741c-3.641,9.586-12.414,17.184-20.354,23.2
		c-2.279,1.726-31.246,17.114-29.718,4.912c1.699-13.558,19.536-43.569-1.427-51.237c-11.274-4.125-30.03,0.56-36.174,11.092
		c-7.305,12.533-7.164,32.668-5.521,46.68c0.359,3.069,6.442,7.773,7.47,2.813c4.45-21.454,3.619-44.232,3.966-66.071
		c0.199-12.146,0.765-24.225,2.764-36.219c0.637-3.807,7.568-29.004,11.635-19.539c18.758,43.703-22.291,69.99-44.025,101.465
		C1608.01,159.579,1614.509,165.503,1617.16,161.66"/>
</g>
</svg>
